STARTFONT 2.1
FONT -Fondu--Medium-R-Normal--11-110-75-75-P-49-MacRoman-1
SIZE 11 75 75
FONTBOUNDINGBOX 9 11 -1 -2
COMMENT Created by Fondu from a mac NFNT/FONT resource
STARTPROPERTIES 17
FOUNDRY "Fondu"
FAMILY_NAME ""
WEIGHT_NAME "Medium"
SLANT "R"
SETWIDTH_NAME "Normal"
ADD_STYLE_NAME ""
PIXEL_SIZE 11
POINT_SIZE 110
RESOLUTION_X 75
RESOLUTION_Y 75
SPACING "P"
AVERAGE_WIDTH 49
CHARSET_REGISTRY "MacRoman"
CHARSET_ENCODING "1"
FONT_ASCENT 9
FONT_DESCENT 2
FACE_NAME "nameless"
ENDPROPERTIES
CHARS 223
STARTCHAR space
ENCODING 32
SWIDTH 181 0
DWIDTH 2 0
BBX 0 0 0 -2
BITMAP
ENDCHAR
STARTCHAR exclam
ENCODING 33
SWIDTH 181 0
DWIDTH 2 0
BBX 1 7 0 0
BITMAP
80
80
80
80
80
00
80
ENDCHAR
STARTCHAR quotedbl
ENCODING 34
SWIDTH 272 0
DWIDTH 3 0
BBX 3 3 0 4
BITMAP
A0
A0
A0
ENDCHAR
STARTCHAR numbersign
ENCODING 35
SWIDTH 454 0
DWIDTH 5 0
BBX 5 7 0 0
BITMAP
28
50
F8
50
F8
50
A0
ENDCHAR
STARTCHAR dollar
ENCODING 36
SWIDTH 454 0
DWIDTH 5 0
BBX 5 8 0 -1
BITMAP
20
70
A8
60
30
A8
70
20
ENDCHAR
STARTCHAR percent
ENCODING 37
SWIDTH 636 0
DWIDTH 7 0
BBX 7 7 0 0
BITMAP
44
A8
48
10
14
2A
44
ENDCHAR
STARTCHAR ampersand
ENCODING 38
SWIDTH 454 0
DWIDTH 5 0
BBX 5 8 0 0
BITMAP
20
50
60
40
A0
90
98
60
ENDCHAR
STARTCHAR quotesingle
ENCODING 39
SWIDTH 181 0
DWIDTH 2 0
BBX 1 3 0 4
BITMAP
80
80
80
ENDCHAR
STARTCHAR parenleft
ENCODING 40
SWIDTH 272 0
DWIDTH 3 0
BBX 2 9 0 -2
BITMAP
40
80
80
80
80
80
80
80
40
ENDCHAR
STARTCHAR parenright
ENCODING 41
SWIDTH 272 0
DWIDTH 3 0
BBX 2 9 0 -2
BITMAP
80
40
40
40
40
40
40
40
80
ENDCHAR
STARTCHAR asterisk
ENCODING 42
SWIDTH 272 0
DWIDTH 3 0
BBX 3 3 0 3
BITMAP
40
E0
40
ENDCHAR
STARTCHAR plus
ENCODING 43
SWIDTH 454 0
DWIDTH 5 0
BBX 5 5 0 0
BITMAP
20
20
F8
20
20
ENDCHAR
STARTCHAR comma
ENCODING 44
SWIDTH 181 0
DWIDTH 2 0
BBX 2 2 0 -1
BITMAP
40
80
ENDCHAR
STARTCHAR hyphen
ENCODING 45
SWIDTH 272 0
DWIDTH 3 0
BBX 2 1 0 2
BITMAP
C0
ENDCHAR
STARTCHAR period
ENCODING 46
SWIDTH 181 0
DWIDTH 2 0
BBX 1 1 0 0
BITMAP
80
ENDCHAR
STARTCHAR slash
ENCODING 47
SWIDTH 181 0
DWIDTH 2 0
BBX 2 8 0 0
BITMAP
40
40
40
40
80
80
80
80
ENDCHAR
STARTCHAR zero
ENCODING 48
SWIDTH 454 0
DWIDTH 5 0
BBX 4 7 0 0
BITMAP
60
90
90
90
90
90
60
ENDCHAR
STARTCHAR one
ENCODING 49
SWIDTH 454 0
DWIDTH 5 0
BBX 2 7 1 0
BITMAP
40
C0
40
40
40
40
40
ENDCHAR
STARTCHAR two
ENCODING 50
SWIDTH 454 0
DWIDTH 5 0
BBX 4 7 0 0
BITMAP
60
90
90
20
40
80
F0
ENDCHAR
STARTCHAR three
ENCODING 51
SWIDTH 454 0
DWIDTH 5 0
BBX 4 7 0 0
BITMAP
60
90
10
20
10
90
60
ENDCHAR
STARTCHAR four
ENCODING 52
SWIDTH 454 0
DWIDTH 5 0
BBX 5 7 0 0
BITMAP
10
30
50
90
F8
10
10
ENDCHAR
STARTCHAR five
ENCODING 53
SWIDTH 454 0
DWIDTH 5 0
BBX 4 7 0 0
BITMAP
F0
80
80
E0
10
90
60
ENDCHAR
STARTCHAR six
ENCODING 54
SWIDTH 454 0
DWIDTH 5 0
BBX 4 7 0 0
BITMAP
70
80
E0
90
90
90
60
ENDCHAR
STARTCHAR seven
ENCODING 55
SWIDTH 454 0
DWIDTH 5 0
BBX 4 7 0 0
BITMAP
F0
10
10
20
40
40
40
ENDCHAR
STARTCHAR eight
ENCODING 56
SWIDTH 454 0
DWIDTH 5 0
BBX 4 7 0 0
BITMAP
60
90
90
60
90
90
60
ENDCHAR
STARTCHAR nine
ENCODING 57
SWIDTH 454 0
DWIDTH 5 0
BBX 4 7 0 0
BITMAP
60
90
90
90
70
10
E0
ENDCHAR
STARTCHAR colon
ENCODING 58
SWIDTH 181 0
DWIDTH 2 0
BBX 1 5 0 0
BITMAP
80
00
00
00
80
ENDCHAR
STARTCHAR semicolon
ENCODING 59
SWIDTH 181 0
DWIDTH 2 0
BBX 2 6 -1 -1
BITMAP
40
00
00
00
40
80
ENDCHAR
STARTCHAR less
ENCODING 60
SWIDTH 454 0
DWIDTH 5 0
BBX 4 5 0 1
BITMAP
10
60
80
60
10
ENDCHAR
STARTCHAR equal
ENCODING 61
SWIDTH 454 0
DWIDTH 5 0
BBX 4 3 0 1
BITMAP
F0
00
F0
ENDCHAR
STARTCHAR greater
ENCODING 62
SWIDTH 454 0
DWIDTH 5 0
BBX 4 5 0 1
BITMAP
80
60
10
60
80
ENDCHAR
STARTCHAR question
ENCODING 63
SWIDTH 454 0
DWIDTH 5 0
BBX 4 6 0 0
BITMAP
60
90
20
40
00
40
ENDCHAR
STARTCHAR at
ENCODING 64
SWIDTH 727 0
DWIDTH 8 0
BBX 7 8 0 -1
BITMAP
38
44
92
AA
AA
AA
9C
40
ENDCHAR
STARTCHAR A
ENCODING 65
SWIDTH 454 0
DWIDTH 5 0
BBX 5 7 0 0
BITMAP
20
20
50
50
70
88
88
ENDCHAR
STARTCHAR B
ENCODING 66
SWIDTH 454 0
DWIDTH 5 0
BBX 4 7 0 0
BITMAP
E0
90
90
E0
90
90
E0
ENDCHAR
STARTCHAR C
ENCODING 67
SWIDTH 545 0
DWIDTH 6 0
BBX 5 7 0 0
BITMAP
70
88
80
80
80
88
70
ENDCHAR
STARTCHAR D
ENCODING 68
SWIDTH 545 0
DWIDTH 6 0
BBX 5 7 0 0
BITMAP
F0
88
88
88
88
88
F0
ENDCHAR
STARTCHAR E
ENCODING 69
SWIDTH 454 0
DWIDTH 5 0
BBX 4 7 0 0
BITMAP
F0
80
80
E0
80
80
F0
ENDCHAR
STARTCHAR F
ENCODING 70
SWIDTH 454 0
DWIDTH 5 0
BBX 4 7 0 0
BITMAP
F0
80
80
E0
80
80
80
ENDCHAR
STARTCHAR G
ENCODING 71
SWIDTH 545 0
DWIDTH 6 0
BBX 5 7 0 0
BITMAP
70
88
80
B8
88
98
68
ENDCHAR
STARTCHAR H
ENCODING 72
SWIDTH 545 0
DWIDTH 6 0
BBX 5 7 0 0
BITMAP
88
88
88
F8
88
88
88
ENDCHAR
STARTCHAR I
ENCODING 73
SWIDTH 181 0
DWIDTH 2 0
BBX 1 7 0 0
BITMAP
80
80
80
80
80
80
80
ENDCHAR
STARTCHAR J
ENCODING 74
SWIDTH 363 0
DWIDTH 4 0
BBX 4 7 -1 0
BITMAP
10
10
10
10
10
90
60
ENDCHAR
STARTCHAR K
ENCODING 75
SWIDTH 454 0
DWIDTH 5 0
BBX 5 7 0 0
BITMAP
88
90
A0
C0
A0
90
88
ENDCHAR
STARTCHAR L
ENCODING 76
SWIDTH 454 0
DWIDTH 5 0
BBX 4 7 0 0
BITMAP
80
80
80
80
80
80
F0
ENDCHAR
STARTCHAR M
ENCODING 77
SWIDTH 636 0
DWIDTH 7 0
BBX 5 7 1 0
BITMAP
88
88
D8
A8
A8
88
88
ENDCHAR
STARTCHAR N
ENCODING 78
SWIDTH 545 0
DWIDTH 6 0
BBX 5 7 0 0
BITMAP
88
C8
A8
98
88
88
88
ENDCHAR
STARTCHAR O
ENCODING 79
SWIDTH 545 0
DWIDTH 6 0
BBX 5 7 0 0
BITMAP
70
88
88
88
88
88
70
ENDCHAR
STARTCHAR P
ENCODING 80
SWIDTH 454 0
DWIDTH 5 0
BBX 4 7 0 0
BITMAP
E0
90
90
E0
80
80
80
ENDCHAR
STARTCHAR Q
ENCODING 81
SWIDTH 545 0
DWIDTH 6 0
BBX 5 9 0 -2
BITMAP
70
88
88
88
88
88
70
10
08
ENDCHAR
STARTCHAR R
ENCODING 82
SWIDTH 545 0
DWIDTH 6 0
BBX 5 7 0 0
BITMAP
F0
88
88
F0
A0
90
88
ENDCHAR
STARTCHAR S
ENCODING 83
SWIDTH 454 0
DWIDTH 5 0
BBX 4 7 0 0
BITMAP
60
90
80
60
10
90
60
ENDCHAR
STARTCHAR T
ENCODING 84
SWIDTH 454 0
DWIDTH 5 0
BBX 5 7 0 0
BITMAP
F8
20
20
20
20
20
20
ENDCHAR
STARTCHAR U
ENCODING 85
SWIDTH 545 0
DWIDTH 6 0
BBX 5 7 0 0
BITMAP
88
88
88
88
88
88
70
ENDCHAR
STARTCHAR V
ENCODING 86
SWIDTH 454 0
DWIDTH 5 0
BBX 5 7 0 0
BITMAP
88
88
88
50
50
20
20
ENDCHAR
STARTCHAR W
ENCODING 87
SWIDTH 727 0
DWIDTH 8 0
BBX 7 7 0 0
BITMAP
92
92
92
AA
6C
44
44
ENDCHAR
STARTCHAR X
ENCODING 88
SWIDTH 454 0
DWIDTH 5 0
BBX 5 7 0 0
BITMAP
88
50
50
20
50
50
88
ENDCHAR
STARTCHAR Y
ENCODING 89
SWIDTH 454 0
DWIDTH 5 0
BBX 5 7 0 0
BITMAP
88
88
50
50
20
20
20
ENDCHAR
STARTCHAR Z
ENCODING 90
SWIDTH 454 0
DWIDTH 5 0
BBX 4 7 0 0
BITMAP
F0
10
20
20
40
80
F0
ENDCHAR
STARTCHAR bracketleft
ENCODING 91
SWIDTH 181 0
DWIDTH 2 0
BBX 2 9 0 -2
BITMAP
C0
80
80
80
80
80
80
80
C0
ENDCHAR
STARTCHAR backslash
ENCODING 92
SWIDTH 181 0
DWIDTH 2 0
BBX 2 7 0 0
BITMAP
80
80
80
80
40
40
40
ENDCHAR
STARTCHAR bracketright
ENCODING 93
SWIDTH 181 0
DWIDTH 2 0
BBX 2 9 -1 -2
BITMAP
C0
40
40
40
40
40
40
40
C0
ENDCHAR
STARTCHAR asciicircum
ENCODING 94
SWIDTH 363 0
DWIDTH 4 0
BBX 3 4 0 3
BITMAP
40
40
A0
A0
ENDCHAR
STARTCHAR underscore
ENCODING 95
SWIDTH 454 0
DWIDTH 5 0
BBX 5 1 0 -2
BITMAP
F8
ENDCHAR
STARTCHAR grave
ENCODING 96
SWIDTH 272 0
DWIDTH 3 0
BBX 2 2 0 4
BITMAP
80
40
ENDCHAR
STARTCHAR a
ENCODING 97
SWIDTH 454 0
DWIDTH 5 0
BBX 4 5 0 0
BITMAP
60
10
70
90
70
ENDCHAR
STARTCHAR b
ENCODING 98
SWIDTH 454 0
DWIDTH 5 0
BBX 4 7 0 0
BITMAP
80
80
E0
90
90
90
E0
ENDCHAR
STARTCHAR c
ENCODING 99
SWIDTH 363 0
DWIDTH 4 0
BBX 4 5 0 0
BITMAP
60
90
80
90
60
ENDCHAR
STARTCHAR d
ENCODING 100
SWIDTH 454 0
DWIDTH 5 0
BBX 4 7 0 0
BITMAP
10
10
70
90
90
90
70
ENDCHAR
STARTCHAR e
ENCODING 101
SWIDTH 454 0
DWIDTH 5 0
BBX 4 5 0 0
BITMAP
60
90
F0
80
70
ENDCHAR
STARTCHAR f
ENCODING 102
SWIDTH 181 0
DWIDTH 2 0
BBX 3 7 -1 0
BITMAP
20
40
E0
40
40
40
40
ENDCHAR
STARTCHAR g
ENCODING 103
SWIDTH 454 0
DWIDTH 5 0
BBX 4 7 0 -2
BITMAP
70
90
90
90
70
10
E0
ENDCHAR
STARTCHAR h
ENCODING 104
SWIDTH 454 0
DWIDTH 5 0
BBX 4 7 0 0
BITMAP
80
80
E0
90
90
90
90
ENDCHAR
STARTCHAR i
ENCODING 105
SWIDTH 181 0
DWIDTH 2 0
BBX 1 7 0 0
BITMAP
80
00
80
80
80
80
80
ENDCHAR
STARTCHAR j
ENCODING 106
SWIDTH 181 0
DWIDTH 2 0
BBX 2 8 -1 -1
BITMAP
40
00
40
40
40
40
40
80
ENDCHAR
STARTCHAR k
ENCODING 107
SWIDTH 363 0
DWIDTH 4 0
BBX 4 7 0 0
BITMAP
80
80
90
A0
C0
A0
90
ENDCHAR
STARTCHAR l
ENCODING 108
SWIDTH 181 0
DWIDTH 2 0
BBX 1 7 0 0
BITMAP
80
80
80
80
80
80
80
ENDCHAR
STARTCHAR m
ENCODING 109
SWIDTH 636 0
DWIDTH 7 0
BBX 5 5 1 0
BITMAP
D0
A8
A8
A8
A8
ENDCHAR
STARTCHAR n
ENCODING 110
SWIDTH 454 0
DWIDTH 5 0
BBX 4 5 0 0
BITMAP
E0
90
90
90
90
ENDCHAR
STARTCHAR o
ENCODING 111
SWIDTH 454 0
DWIDTH 5 0
BBX 4 5 0 0
BITMAP
60
90
90
90
60
ENDCHAR
STARTCHAR p
ENCODING 112
SWIDTH 454 0
DWIDTH 5 0
BBX 4 7 0 -2
BITMAP
E0
90
90
90
E0
80
80
ENDCHAR
STARTCHAR q
ENCODING 113
SWIDTH 454 0
DWIDTH 5 0
BBX 4 7 0 -2
BITMAP
70
90
90
90
70
10
10
ENDCHAR
STARTCHAR r
ENCODING 114
SWIDTH 272 0
DWIDTH 3 0
BBX 3 5 0 0
BITMAP
A0
C0
80
80
80
ENDCHAR
STARTCHAR s
ENCODING 115
SWIDTH 363 0
DWIDTH 4 0
BBX 4 5 0 0
BITMAP
70
80
60
10
E0
ENDCHAR
STARTCHAR t
ENCODING 116
SWIDTH 181 0
DWIDTH 2 0
BBX 3 6 -1 0
BITMAP
40
E0
40
40
40
20
ENDCHAR
STARTCHAR u
ENCODING 117
SWIDTH 454 0
DWIDTH 5 0
BBX 4 5 0 0
BITMAP
90
90
90
90
70
ENDCHAR
STARTCHAR v
ENCODING 118
SWIDTH 363 0
DWIDTH 4 0
BBX 4 5 0 0
BITMAP
90
90
90
60
40
ENDCHAR
STARTCHAR w
ENCODING 119
SWIDTH 545 0
DWIDTH 6 0
BBX 6 5 0 0
BITMAP
A4
A4
A8
58
48
ENDCHAR
STARTCHAR x
ENCODING 120
SWIDTH 363 0
DWIDTH 4 0
BBX 4 5 0 0
BITMAP
90
90
60
90
90
ENDCHAR
STARTCHAR y
ENCODING 121
SWIDTH 363 0
DWIDTH 4 0
BBX 4 7 0 -2
BITMAP
90
90
90
60
20
40
80
ENDCHAR
STARTCHAR z
ENCODING 122
SWIDTH 363 0
DWIDTH 4 0
BBX 3 5 0 0
BITMAP
E0
20
40
80
E0
ENDCHAR
STARTCHAR braceleft
ENCODING 123
SWIDTH 272 0
DWIDTH 3 0
BBX 3 9 0 -2
BITMAP
20
40
40
40
80
40
40
40
20
ENDCHAR
STARTCHAR bar
ENCODING 124
SWIDTH 181 0
DWIDTH 2 0
BBX 1 9 0 -2
BITMAP
80
80
80
80
80
80
80
80
80
ENDCHAR
STARTCHAR braceright
ENCODING 125
SWIDTH 272 0
DWIDTH 3 0
BBX 3 9 0 -2
BITMAP
80
40
40
40
20
40
40
40
80
ENDCHAR
STARTCHAR asciitilde
ENCODING 126
SWIDTH 454 0
DWIDTH 5 0
BBX 5 2 0 3
BITMAP
68
90
ENDCHAR
STARTCHAR Adieresis
ENCODING 128
SWIDTH 454 0
DWIDTH 5 0
BBX 5 7 0 0
BITMAP
20
20
50
50
70
88
88
ENDCHAR
STARTCHAR Aring
ENCODING 129
SWIDTH 454 0
DWIDTH 5 0
BBX 4 7 0 0
BITMAP
F0
80
80
E0
90
90
E0
ENDCHAR
STARTCHAR Ccedilla
ENCODING 130
SWIDTH 454 0
DWIDTH 5 0
BBX 4 7 0 0
BITMAP
E0
90
90
E0
90
90
E0
ENDCHAR
STARTCHAR Eacute
ENCODING 131
SWIDTH 454 0
DWIDTH 5 0
BBX 4 7 0 0
BITMAP
F0
80
80
80
80
80
80
ENDCHAR
STARTCHAR Ntilde
ENCODING 132
SWIDTH 545 0
DWIDTH 6 0
BBX 6 9 0 -2
BITMAP
38
28
28
28
48
48
FC
84
84
ENDCHAR
STARTCHAR Odieresis
ENCODING 133
SWIDTH 454 0
DWIDTH 5 0
BBX 4 7 0 0
BITMAP
F0
80
80
E0
80
80
F0
ENDCHAR
STARTCHAR Udieresis
ENCODING 134
SWIDTH 818 0
DWIDTH 9 0
BBX 9 7 0 0
BITMAP
8880
4900
2A00
1C00
2A00
4900
8880
ENDCHAR
STARTCHAR aacute
ENCODING 135
SWIDTH 454 0
DWIDTH 5 0
BBX 4 7 0 0
BITMAP
60
90
10
60
10
90
60
ENDCHAR
STARTCHAR agrave
ENCODING 136
SWIDTH 545 0
DWIDTH 6 0
BBX 5 7 0 0
BITMAP
88
88
98
A8
C8
88
88
ENDCHAR
STARTCHAR acircumflex
ENCODING 137
SWIDTH 545 0
DWIDTH 6 0
BBX 5 9 0 0
BITMAP
50
20
88
88
98
A8
C8
88
88
ENDCHAR
STARTCHAR adieresis
ENCODING 138
SWIDTH 454 0
DWIDTH 5 0
BBX 5 7 0 0
BITMAP
88
90
A0
C0
A0
90
88
ENDCHAR
STARTCHAR atilde
ENCODING 139
SWIDTH 545 0
DWIDTH 6 0
BBX 5 7 0 0
BITMAP
78
48
48
48
48
48
88
ENDCHAR
STARTCHAR aring
ENCODING 140
SWIDTH 636 0
DWIDTH 7 0
BBX 5 7 1 0
BITMAP
88
88
D8
A8
A8
88
88
ENDCHAR
STARTCHAR ccedilla
ENCODING 141
SWIDTH 545 0
DWIDTH 6 0
BBX 5 7 0 0
BITMAP
88
88
88
F8
88
88
88
ENDCHAR
STARTCHAR eacute
ENCODING 142
SWIDTH 545 0
DWIDTH 6 0
BBX 5 7 0 0
BITMAP
70
88
88
88
88
88
70
ENDCHAR
STARTCHAR egrave
ENCODING 143
SWIDTH 545 0
DWIDTH 6 0
BBX 5 7 0 0
BITMAP
F8
88
88
88
88
88
88
ENDCHAR
STARTCHAR ecircumflex
ENCODING 144
SWIDTH 454 0
DWIDTH 5 0
BBX 4 7 0 0
BITMAP
E0
90
90
E0
80
80
80
ENDCHAR
STARTCHAR edieresis
ENCODING 145
SWIDTH 545 0
DWIDTH 6 0
BBX 5 7 0 0
BITMAP
70
88
80
80
80
88
70
ENDCHAR
STARTCHAR iacute
ENCODING 146
SWIDTH 454 0
DWIDTH 5 0
BBX 5 7 0 0
BITMAP
F8
20
20
20
20
20
20
ENDCHAR
STARTCHAR igrave
ENCODING 147
SWIDTH 454 0
DWIDTH 5 0
BBX 5 7 0 0
BITMAP
88
88
50
50
20
20
C0
ENDCHAR
STARTCHAR icircumflex
ENCODING 148
SWIDTH 636 0
DWIDTH 7 0
BBX 7 7 0 0
BITMAP
10
7C
92
92
92
7C
10
ENDCHAR
STARTCHAR idieresis
ENCODING 149
SWIDTH 454 0
DWIDTH 5 0
BBX 5 7 0 0
BITMAP
88
50
50
20
50
50
88
ENDCHAR
STARTCHAR ntilde
ENCODING 150
SWIDTH 545 0
DWIDTH 6 0
BBX 6 9 0 -2
BITMAP
88
88
88
88
88
88
FC
04
04
ENDCHAR
STARTCHAR oacute
ENCODING 151
SWIDTH 545 0
DWIDTH 6 0
BBX 5 7 0 0
BITMAP
88
88
88
78
08
08
08
ENDCHAR
STARTCHAR ograve
ENCODING 152
SWIDTH 818 0
DWIDTH 9 0
BBX 7 7 1 0
BITMAP
92
92
92
92
92
92
FE
ENDCHAR
STARTCHAR ocircumflex
ENCODING 153
SWIDTH 818 0
DWIDTH 9 0
BBX 8 9 1 -2
BITMAP
92
92
92
92
92
92
FF
01
01
ENDCHAR
STARTCHAR odieresis
ENCODING 154
SWIDTH 636 0
DWIDTH 7 0
BBX 6 7 0 0
BITMAP
E0
20
20
38
24
24
38
ENDCHAR
STARTCHAR otilde
ENCODING 155
SWIDTH 636 0
DWIDTH 7 0
BBX 6 7 0 0
BITMAP
84
84
84
E4
94
94
E4
ENDCHAR
STARTCHAR uacute
ENCODING 156
SWIDTH 454 0
DWIDTH 5 0
BBX 4 7 0 0
BITMAP
80
80
80
E0
90
90
E0
ENDCHAR
STARTCHAR ugrave
ENCODING 157
SWIDTH 545 0
DWIDTH 6 0
BBX 5 7 0 0
BITMAP
70
88
08
38
08
88
70
ENDCHAR
STARTCHAR ucircumflex
ENCODING 158
SWIDTH 818 0
DWIDTH 9 0
BBX 7 7 0 0
BITMAP
9C
A2
A2
E2
A2
A2
9C
ENDCHAR
STARTCHAR udieresis
ENCODING 159
SWIDTH 545 0
DWIDTH 6 0
BBX 5 7 0 0
BITMAP
78
88
88
78
28
48
88
ENDCHAR
STARTCHAR dagger
ENCODING 160
SWIDTH 454 0
DWIDTH 5 0
BBX 5 9 0 -2
BITMAP
20
20
F8
20
20
20
20
20
20
ENDCHAR
STARTCHAR degree
ENCODING 161
SWIDTH 272 0
DWIDTH 3 0
BBX 3 3 0 4
BITMAP
40
A0
40
ENDCHAR
STARTCHAR cent
ENCODING 162
SWIDTH 454 0
DWIDTH 5 0
BBX 4 9 0 0
BITMAP
10
10
F0
80
80
80
80
80
80
ENDCHAR
STARTCHAR sterling
ENCODING 163
SWIDTH 454 0
DWIDTH 5 0
BBX 4 7 0 0
BITMAP
60
90
80
E0
40
60
90
ENDCHAR
STARTCHAR section
ENCODING 164
SWIDTH 454 0
DWIDTH 5 0
BBX 4 9 0 -2
BITMAP
20
50
40
A0
90
50
20
90
60
ENDCHAR
STARTCHAR bullet
ENCODING 165
SWIDTH 272 0
DWIDTH 3 0
BBX 2 2 0 3
BITMAP
C0
C0
ENDCHAR
STARTCHAR paragraph
ENCODING 166
SWIDTH 363 0
DWIDTH 4 0
BBX 5 9 -1 -2
BITMAP
78
E8
E8
68
28
28
28
28
28
ENDCHAR
STARTCHAR germandbls
ENCODING 167
SWIDTH 181 0
DWIDTH 2 0
BBX 1 7 0 0
BITMAP
80
80
80
80
80
80
80
ENDCHAR
STARTCHAR registered
ENCODING 168
SWIDTH 727 0
DWIDTH 8 0
BBX 8 8 0 0
BITMAP
3C
42
9D
95
99
95
42
3C
ENDCHAR
STARTCHAR copyright
ENCODING 169
SWIDTH 727 0
DWIDTH 8 0
BBX 8 8 0 0
BITMAP
3C
42
99
A1
A1
99
42
3C
ENDCHAR
STARTCHAR trademark
ENCODING 170
SWIDTH 727 0
DWIDTH 8 0
BBX 8 4 0 2
BITMAP
F1
5B
55
51
ENDCHAR
STARTCHAR acute
ENCODING 171
SWIDTH 636 0
DWIDTH 7 0
BBX 7 7 0 0
BITMAP
F8
20
3C
22
22
22
2C
ENDCHAR
STARTCHAR dieresis
ENCODING 172
SWIDTH 454 0
DWIDTH 5 0
BBX 5 9 -1 -2
BITMAP
40
F0
40
70
48
48
48
08
30
ENDCHAR
STARTCHAR notequal
ENCODING 173
SWIDTH 454 0
DWIDTH 5 0
BBX 5 5 0 0
BITMAP
10
F8
20
F8
40
ENDCHAR
STARTCHAR AE
ENCODING 174
SWIDTH 454 0
DWIDTH 5 0
BBX 4 9 0 0
BITMAP
20
40
F0
80
80
80
80
80
80
ENDCHAR
STARTCHAR Oslash
ENCODING 175
SWIDTH 363 0
DWIDTH 4 0
BBX 3 8 0 0
BITMAP
20
40
00
E0
80
80
80
80
ENDCHAR
STARTCHAR infinity
ENCODING 176
SWIDTH 636 0
DWIDTH 7 0
BBX 7 4 0 1
BITMAP
6C
92
92
6C
ENDCHAR
STARTCHAR plusminus
ENCODING 177
SWIDTH 454 0
DWIDTH 5 0
BBX 5 6 0 0
BITMAP
20
20
F8
20
20
F8
ENDCHAR
STARTCHAR lessequal
ENCODING 178
SWIDTH 454 0
DWIDTH 5 0
BBX 5 6 0 0
BITMAP
08
30
C0
30
08
F8
ENDCHAR
STARTCHAR greaterequal
ENCODING 179
SWIDTH 454 0
DWIDTH 5 0
BBX 5 6 0 0
BITMAP
C0
30
08
30
C0
F8
ENDCHAR
STARTCHAR yen
ENCODING 180
SWIDTH 181 0
DWIDTH 2 0
BBX 1 7 0 0
BITMAP
80
00
80
80
80
80
80
ENDCHAR
STARTCHAR mu
ENCODING 181
SWIDTH 454 0
DWIDTH 5 0
BBX 4 7 0 -2
BITMAP
90
90
90
90
F0
80
80
ENDCHAR
STARTCHAR partialdiff
ENCODING 182
SWIDTH 363 0
DWIDTH 4 0
BBX 3 7 0 0
BITMAP
20
20
E0
80
80
80
80
ENDCHAR
STARTCHAR summation
ENCODING 183
SWIDTH 363 0
DWIDTH 4 0
BBX 4 7 -1 0
BITMAP
10
10
10
10
10
90
60
ENDCHAR
STARTCHAR product
ENCODING 184
SWIDTH 545 0
DWIDTH 6 0
BBX 5 7 0 0
BITMAP
70
88
80
E0
80
88
70
ENDCHAR
STARTCHAR pi
ENCODING 185
SWIDTH 363 0
DWIDTH 4 0
BBX 4 5 0 0
BITMAP
60
90
C0
90
60
ENDCHAR
STARTCHAR integral
ENCODING 186
SWIDTH 181 0
DWIDTH 2 0
BBX 3 9 -1 0
BITMAP
A0
00
40
40
40
40
40
40
40
ENDCHAR
STARTCHAR ordfeminine
ENCODING 187
SWIDTH 181 0
DWIDTH 2 0
BBX 3 7 -1 0
BITMAP
A0
00
40
40
40
40
40
ENDCHAR
STARTCHAR ordmasculine
ENCODING 188
SWIDTH 818 0
DWIDTH 9 0
BBX 8 7 0 0
BITMAP
78
48
48
4E
49
49
8E
ENDCHAR
STARTCHAR Omega
ENCODING 189
SWIDTH 636 0
DWIDTH 7 0
BBX 7 5 0 0
BITMAP
70
50
5C
52
9C
ENDCHAR
STARTCHAR ae
ENCODING 190
SWIDTH 818 0
DWIDTH 9 0
BBX 7 7 1 0
BITMAP
90
90
90
FC
92
92
9C
ENDCHAR
STARTCHAR oslash
ENCODING 191
SWIDTH 636 0
DWIDTH 7 0
BBX 7 5 0 0
BITMAP
90
90
FC
92
9C
ENDCHAR
STARTCHAR questiondown
ENCODING 192
SWIDTH 181 0
DWIDTH 2 0
BBX 2 8 -1 -1
BITMAP
40
00
40
40
40
40
40
80
ENDCHAR
STARTCHAR exclamdown
ENCODING 193
SWIDTH 454 0
DWIDTH 5 0
BBX 4 7 0 0
BITMAP
60
90
80
60
10
90
60
ENDCHAR
STARTCHAR logicalnot
ENCODING 194
SWIDTH 454 0
DWIDTH 5 0
BBX 4 3 0 1
BITMAP
F0
10
10
ENDCHAR
STARTCHAR radical
ENCODING 195
SWIDTH 454 0
DWIDTH 5 0
BBX 4 7 0 0
BITMAP
10
10
10
90
50
20
20
ENDCHAR
STARTCHAR florin
ENCODING 196
SWIDTH 454 0
DWIDTH 5 0
BBX 4 9 0 -2
BITMAP
10
20
70
20
40
40
40
40
80
ENDCHAR
STARTCHAR approxequal
ENCODING 197
SWIDTH 454 0
DWIDTH 5 0
BBX 5 4 0 1
BITMAP
68
90
68
90
ENDCHAR
STARTCHAR Delta
ENCODING 198
SWIDTH 545 0
DWIDTH 6 0
BBX 6 7 0 0
BITMAP
10
10
30
48
48
84
FC
ENDCHAR
STARTCHAR guillemotleft
ENCODING 199
SWIDTH 454 0
DWIDTH 5 0
BBX 4 3 0 1
BITMAP
50
A0
50
ENDCHAR
STARTCHAR guillemotright
ENCODING 200
SWIDTH 454 0
DWIDTH 5 0
BBX 4 3 0 1
BITMAP
A0
50
A0
ENDCHAR
STARTCHAR ellipsis
ENCODING 201
SWIDTH 727 0
DWIDTH 8 0
BBX 7 1 0 0
BITMAP
92
ENDCHAR
STARTCHAR nbspace
ENCODING 202
SWIDTH 181 0
DWIDTH 2 0
BBX 0 0 0 -2
BITMAP
ENDCHAR
STARTCHAR Agrave
ENCODING 203
SWIDTH 636 0
DWIDTH 7 0
BBX 6 7 0 0
BITMAP
F8
20
38
24
24
24
24
ENDCHAR
STARTCHAR Atilde
ENCODING 204
SWIDTH 454 0
DWIDTH 5 0
BBX 5 7 -1 0
BITMAP
40
F0
40
70
48
48
48
ENDCHAR
STARTCHAR Otilde
ENCODING 205
SWIDTH 454 0
DWIDTH 5 0
BBX 5 9 0 0
BITMAP
10
20
88
90
A0
C0
A0
90
88
ENDCHAR
STARTCHAR OE
ENCODING 206
SWIDTH 363 0
DWIDTH 4 0
BBX 4 8 0 0
BITMAP
20
40
00
90
A0
C0
A0
90
ENDCHAR
STARTCHAR oe
ENCODING 207
SWIDTH 363 0
DWIDTH 4 0
BBX 4 5 0 0
BITMAP
70
80
60
10
E0
ENDCHAR
STARTCHAR endash
ENCODING 208
SWIDTH 454 0
DWIDTH 5 0
BBX 5 1 0 2
BITMAP
F8
ENDCHAR
STARTCHAR emdash
ENCODING 209
SWIDTH 727 0
DWIDTH 8 0
BBX 8 1 0 2
BITMAP
FF
ENDCHAR
STARTCHAR quotedblleft
ENCODING 210
SWIDTH 272 0
DWIDTH 3 0
BBX 4 3 0 5
BITMAP
50
A0
A0
ENDCHAR
STARTCHAR quotedblright
ENCODING 211
SWIDTH 272 0
DWIDTH 3 0
BBX 4 3 -1 4
BITMAP
50
50
A0
ENDCHAR
STARTCHAR quoteleft
ENCODING 212
SWIDTH 181 0
DWIDTH 2 0
BBX 2 3 0 5
BITMAP
40
80
80
ENDCHAR
STARTCHAR quoteright
ENCODING 213
SWIDTH 181 0
DWIDTH 2 0
BBX 2 3 0 4
BITMAP
40
40
80
ENDCHAR
STARTCHAR divide
ENCODING 214
SWIDTH 454 0
DWIDTH 5 0
BBX 5 5 0 0
BITMAP
20
00
F8
00
20
ENDCHAR
STARTCHAR lozenge
ENCODING 215
SWIDTH 272 0
DWIDTH 3 0
BBX 4 3 -1 -2
BITMAP
50
50
A0
ENDCHAR
STARTCHAR ydieresis
ENCODING 216
SWIDTH 454 0
DWIDTH 5 0
BBX 5 9 0 0
BITMAP
50
20
88
88
50
50
20
20
C0
ENDCHAR
STARTCHAR Ydieresis
ENCODING 217
SWIDTH 363 0
DWIDTH 4 0
BBX 4 9 0 -2
BITMAP
60
00
90
90
90
60
20
40
80
ENDCHAR
STARTCHAR fraction
ENCODING 218
SWIDTH 545 0
DWIDTH 6 0
BBX 5 9 0 -2
BITMAP
88
88
88
88
88
88
F8
20
20
ENDCHAR
STARTCHAR currency
ENCODING 219
SWIDTH 454 0
DWIDTH 5 0
BBX 4 7 0 -2
BITMAP
90
90
90
90
F0
20
20
ENDCHAR
STARTCHAR guilsinglleft
ENCODING 220
SWIDTH 818 0
DWIDTH 9 0
BBX 8 7 1 0
BITMAP
90
90
D2
D5
B2
90
97
ENDCHAR
STARTCHAR guilsinglright
ENCODING 221
SWIDTH 454 0
DWIDTH 5 0
BBX 4 9 0 0
BITMAP
50
00
F0
80
80
E0
80
80
F0
ENDCHAR
STARTCHAR fi
ENCODING 222
SWIDTH 454 0
DWIDTH 5 0
BBX 4 7 0 0
BITMAP
A0
00
60
90
F0
80
70
ENDCHAR
STARTCHAR fl
ENCODING 223
SWIDTH 363 0
DWIDTH 4 0
BBX 4 5 0 0
BITMAP
70
90
70
50
90
ENDCHAR
STARTCHAR daggerdbl
ENCODING 224
SWIDTH 454 0
DWIDTH 5 0
BBX 4 5 0 0
BITMAP
60
10
70
90
70
ENDCHAR
STARTCHAR periodcentered
ENCODING 225
SWIDTH 454 0
DWIDTH 5 0
BBX 4 7 0 0
BITMAP
30
40
E0
90
90
90
60
ENDCHAR
STARTCHAR quotesinglbase
ENCODING 226
SWIDTH 454 0
DWIDTH 5 0
BBX 4 5 0 0
BITMAP
E0
90
E0
90
E0
ENDCHAR
STARTCHAR quotedblbase
ENCODING 227
SWIDTH 363 0
DWIDTH 4 0
BBX 3 5 0 0
BITMAP
E0
80
80
80
80
ENDCHAR
STARTCHAR perthousand
ENCODING 228
SWIDTH 454 0
DWIDTH 5 0
BBX 5 7 0 -2
BITMAP
30
50
50
50
F8
88
88
ENDCHAR
STARTCHAR Acircumflex
ENCODING 229
SWIDTH 454 0
DWIDTH 5 0
BBX 4 5 0 0
BITMAP
60
90
F0
80
70
ENDCHAR
STARTCHAR Ecircumflex
ENCODING 230
SWIDTH 636 0
DWIDTH 7 0
BBX 7 5 0 0
BITMAP
92
54
38
54
92
ENDCHAR
STARTCHAR Aacute
ENCODING 231
SWIDTH 363 0
DWIDTH 4 0
BBX 4 5 0 0
BITMAP
60
90
20
90
60
ENDCHAR
STARTCHAR Edieresis
ENCODING 232
SWIDTH 454 0
DWIDTH 5 0
BBX 4 5 0 0
BITMAP
90
B0
D0
90
90
ENDCHAR
STARTCHAR Egrave
ENCODING 233
SWIDTH 454 0
DWIDTH 5 0
BBX 4 7 0 0
BITMAP
60
00
90
B0
D0
90
90
ENDCHAR
STARTCHAR Iacute
ENCODING 234
SWIDTH 363 0
DWIDTH 4 0
BBX 4 5 0 0
BITMAP
90
A0
C0
A0
90
ENDCHAR
STARTCHAR Icircumflex
ENCODING 235
SWIDTH 454 0
DWIDTH 5 0
BBX 4 5 0 0
BITMAP
70
50
50
50
90
ENDCHAR
STARTCHAR Idieresis
ENCODING 236
SWIDTH 545 0
DWIDTH 6 0
BBX 5 5 0 0
BITMAP
88
88
D8
A8
A8
ENDCHAR
STARTCHAR Igrave
ENCODING 237
SWIDTH 454 0
DWIDTH 5 0
BBX 4 5 0 0
BITMAP
90
90
F0
90
90
ENDCHAR
STARTCHAR Oacute
ENCODING 238
SWIDTH 454 0
DWIDTH 5 0
BBX 4 5 0 0
BITMAP
60
90
90
90
60
ENDCHAR
STARTCHAR Ocircumflex
ENCODING 239
SWIDTH 454 0
DWIDTH 5 0
BBX 4 5 0 0
BITMAP
F0
90
90
90
90
ENDCHAR
STARTCHAR apple
ENCODING 240
SWIDTH 454 0
DWIDTH 5 0
BBX 4 7 0 -2
BITMAP
E0
90
90
90
E0
80
80
ENDCHAR
STARTCHAR Ograve
ENCODING 241
SWIDTH 363 0
DWIDTH 4 0
BBX 4 5 0 0
BITMAP
60
90
80
90
60
ENDCHAR
STARTCHAR Uacute
ENCODING 242
SWIDTH 363 0
DWIDTH 4 0
BBX 5 5 -1 0
BITMAP
F8
20
20
20
20
ENDCHAR
STARTCHAR Ucircumflex
ENCODING 243
SWIDTH 363 0
DWIDTH 4 0
BBX 4 7 0 -2
BITMAP
90
90
90
60
20
40
80
ENDCHAR
STARTCHAR Ugrave
ENCODING 244
SWIDTH 636 0
DWIDTH 7 0
BBX 7 9 0 -2
BITMAP
10
10
7C
92
92
92
7C
10
10
ENDCHAR
STARTCHAR dotlessi
ENCODING 245
SWIDTH 363 0
DWIDTH 4 0
BBX 4 5 0 0
BITMAP
90
90
60
90
90
ENDCHAR
STARTCHAR circumflex
ENCODING 246
SWIDTH 454 0
DWIDTH 5 0
BBX 5 7 0 -2
BITMAP
90
90
90
90
F8
08
08
ENDCHAR
STARTCHAR tilde
ENCODING 247
SWIDTH 454 0
DWIDTH 5 0
BBX 4 5 0 0
BITMAP
90
90
70
10
10
ENDCHAR
STARTCHAR macron
ENCODING 248
SWIDTH 636 0
DWIDTH 7 0
BBX 5 5 1 0
BITMAP
A8
A8
A8
A8
F8
ENDCHAR
STARTCHAR breve
ENCODING 249
SWIDTH 636 0
DWIDTH 7 0
BBX 6 7 1 -2
BITMAP
A8
A8
A8
A8
FC
04
04
ENDCHAR
STARTCHAR dotaccent
ENCODING 250
SWIDTH 454 0
DWIDTH 5 0
BBX 5 5 0 0
BITMAP
C0
40
70
48
70
ENDCHAR
STARTCHAR ring
ENCODING 251
SWIDTH 545 0
DWIDTH 6 0
BBX 5 5 0 0
BITMAP
88
88
E8
98
E8
ENDCHAR
STARTCHAR cedilla
ENCODING 252
SWIDTH 363 0
DWIDTH 4 0
BBX 4 5 0 0
BITMAP
80
80
E0
90
E0
ENDCHAR
STARTCHAR hungarumlaut
ENCODING 253
SWIDTH 363 0
DWIDTH 4 0
BBX 4 5 0 0
BITMAP
60
90
30
90
60
ENDCHAR
STARTCHAR ogonek
ENCODING 254
SWIDTH 636 0
DWIDTH 7 0
BBX 6 5 0 0
BITMAP
98
A4
E4
A4
98
ENDCHAR
STARTCHAR caron
ENCODING 255
SWIDTH 545 0
DWIDTH 6 0
BBX 6 7 0 0
BITMAP
38
44
F8
40
F0
44
38
ENDCHAR
ENDFONT
